<?xml version="1.0" encoding="iso-8859-1"?>
<!-- Generator: Adobe Illustrator 19.0.0, SVG Export Plug-In . SVG Version: 6.00 Build 0)  -->
<svg version="1.1" id="Capa_1" xmlns="http://www.w3.org/2000/svg" xmlns:xlink="http://www.w3.org/1999/xlink" x="0px" y="0px"
	 viewBox="0 0 340.579 340.579" style="enable-background:new 0 0 340.579 340.579;" xml:space="preserve">
<g id="XMLID_536_">
	<rect id="XMLID_43_" y="80.355" style="fill:#00D7DF;" width="340.579" height="255.434"/>
	<rect id="XMLID_782_" x="170.289" y="80.355" style="fill:#00969B;" width="170.289" height="255.434"/>
	<g id="XMLID_783_">
		<path id="XMLID_784_" style="fill:#FFDA44;" d="M266.077,138.892H74.502V4.789h191.576V138.892z M103.238,110.156h134.103v-76.63
			H103.238V110.156z"/>
	</g>
	<path id="XMLID_787_" style="fill:#FFDA44;" d="M340.249,80.355c-5.492,89.093-79.483,159.646-169.959,159.646
		S5.822,169.449,0.33,80.355H340.249z"/>
	<polygon id="XMLID_788_" style="fill:#FFCD00;" points="170.289,4.789 170.289,33.526 237.341,33.526 237.341,110.156 
		170.289,110.156 170.289,138.892 266.077,138.892 266.077,4.789 	"/>
	<rect id="XMLID_35_" x="53.215" y="176.143" style="fill:#FFEB99;" width="53.215" height="74.502"/>
	<rect id="XMLID_34_" x="234.148" y="176.143" style="fill:#FFEB99;" width="53.215" height="74.502"/>
	<rect id="XMLID_33_" x="53.215" y="176.143" style="fill:#FFEB99;" width="53.215" height="74.502"/>
	<path id="XMLID_789_" style="fill:#FFCD00;" d="M170.289,80.355v159.646c90.477,0,164.468-70.553,169.959-159.646H170.289z"/>
	<rect id="XMLID_3_" x="234.148" y="176.143" style="fill:#FFE477;" width="53.215" height="74.502"/>
</g>
<g>
</g>
<g>
</g>
<g>
</g>
<g>
</g>
<g>
</g>
<g>
</g>
<g>
</g>
<g>
</g>
<g>
</g>
<g>
</g>
<g>
</g>
<g>
</g>
<g>
</g>
<g>
</g>
<g>
</g>
</svg>
