<?xml version="1.0" encoding="iso-8859-1"?>
<!-- Generator: Adobe Illustrator 19.0.0, SVG Export Plug-In . SVG Version: 6.00 Build 0)  -->
<svg version="1.1" id="Layer_1" xmlns="http://www.w3.org/2000/svg" xmlns:xlink="http://www.w3.org/1999/xlink" x="0px" y="0px"
	 viewBox="0 0 511.999 511.999" style="enable-background:new 0 0 511.999 511.999;" xml:space="preserve">
<g>
	<path style="fill:#FFCD85;" d="M86.146,144.351h339.707v180.645H86.146V144.351L86.146,144.351z M43.5,129.258v238.388h352.909
		h72.092V129.258c0-15.153-12.396-27.553-27.55-27.553H71.049C55.894,101.705,43.5,114.104,43.5,129.258z"/>
	<path style="fill:#A7E2DE;" d="M425.853,144.351H86.146v180.645h339.707V144.351L425.853,144.351z M234.676,234.675h42.647h10.663
		v42.649h-63.974v-42.649L234.676,234.675L234.676,234.675z"/>
	<polygon style="fill:#EDA23F;" points="277.323,234.675 234.676,234.675 224.013,234.675 224.013,277.324 287.986,277.324 
		287.986,234.675 	"/>
	<path style="fill:#FFCD85;" d="M43.5,367.646H10.77v21.324c0,11.73,8.495,21.324,18.879,21.324h366.759h85.94
		c10.387,0,18.881-9.592,18.881-21.324v-21.324H468.5H43.5z"/>
</g>
<g>
	<path style="fill:#000003;" d="M425.853,133.581H86.146c-5.947,0-10.77,4.822-10.77,10.77v180.645c0,5.947,4.823,10.77,10.77,10.77
		h339.707c5.947,0,10.77-4.823,10.77-10.77V144.351C436.623,138.403,431.801,133.581,425.853,133.581z M415.083,314.227H96.916
		V155.122h318.167V314.227z"/>
	<path style="fill:#000003;" d="M501.23,356.876h-21.959V129.258c0-21.132-17.19-38.323-38.32-38.323H71.049
		c-21.129,0-38.319,17.191-38.319,38.323v227.618H10.77c-5.947,0-10.77,4.822-10.77,10.77v21.324
		c0,17.696,13.301,32.094,29.649,32.094h452.699c16.35,0,29.651-14.397,29.651-32.094v-21.324
		C512,361.697,507.177,356.876,501.23,356.876z M54.27,129.258c0-9.255,7.527-16.783,16.779-16.783h369.903
		c9.253,0,16.78,7.528,16.78,16.783v227.618H54.27V129.258z M490.46,388.969c0,5.72-3.715,10.554-8.111,10.554h-452.7
		c-4.395,0-8.109-4.832-8.109-10.554v-10.554H43.5h425.001h21.959V388.969z"/>
	<path style="fill:#000003;" d="M128.793,296.3c5.947,0,10.77-4.822,10.77-10.77v-39.466c0-5.948-4.823-10.77-10.77-10.77
		s-10.77,4.822-10.77,10.77v39.466C118.023,291.479,122.846,296.3,128.793,296.3z"/>
	<path style="fill:#000003;" d="M128.793,226.202c5.947,0,10.77-4.823,10.77-10.77v-0.256c0-5.948-4.823-10.77-10.77-10.77
		s-10.77,4.822-10.77,10.77v0.256C118.023,221.38,122.846,226.202,128.793,226.202z"/>
	<path style="fill:#000003;" d="M224.013,296.3h63.974c9.33,0,16.922-7.592,16.922-16.924v-38.547
		c0-7.876-5.415-14.493-12.712-16.373v-15.208c0-19.96-16.238-36.198-36.197-36.198s-36.197,16.238-36.197,36.198v15.208
		c-7.296,1.879-12.712,8.498-12.712,16.373v38.547C207.091,288.708,214.683,296.3,224.013,296.3z M283.368,274.76h-54.737v-29.315
		h1.942h50.855h1.942v29.315H283.368z M241.343,209.248c0-8.083,6.575-14.658,14.657-14.658s14.657,6.575,14.657,14.658v14.657
		h-29.315v-14.657H241.343z"/>
</g>
<g>
</g>
<g>
</g>
<g>
</g>
<g>
</g>
<g>
</g>
<g>
</g>
<g>
</g>
<g>
</g>
<g>
</g>
<g>
</g>
<g>
</g>
<g>
</g>
<g>
</g>
<g>
</g>
<g>
</g>
</svg>
