<?xml version="1.0" encoding="iso-8859-1"?>
<!-- Generator: Adobe Illustrator 19.0.0, SVG Export Plug-In . SVG Version: 6.00 Build 0)  -->
<svg version="1.1" id="Layer_1" xmlns="http://www.w3.org/2000/svg" xmlns:xlink="http://www.w3.org/1999/xlink" x="0px" y="0px"
	 viewBox="0 0 345 345" style="enable-background:new 0 0 345 345;" xml:space="preserve">
<g>
	<path style="fill:#13829B;" d="M301.188,173.414v30c-7.198,0-250.796,0-257.376,0v-30H7.5v78c0,5.523,4.477,10,10,10h310
		c5.523,0,10-4.477,10-10v-78H301.188z"/>
	<rect x="113.5" y="49.414" style="fill:#FFDB77;" width="118" height="98"/>
	<path style="fill:#28D2E4;" d="M327.5,97.414h-96v50h-118v-50h-96c-5.523,0-10,4.477-10,10v66h36.312v30
		c7.198,0,250.796,0,257.376,0v-30H337.5v-66C337.5,101.891,333.023,97.414,327.5,97.414z"/>
	<rect x="113.5" y="261.414" style="fill:#FFDB77;" width="118" height="34.172"/>
	<g>
		<path style="fill:#22313F;" d="M327.5,89.914H239v-40.5c0-4.143-3.358-7.5-7.5-7.5h-118c-4.142,0-7.5,3.357-7.5,7.5v40.5H17.5
			c-9.649,0-17.5,7.851-17.5,17.5v66v78c0,9.649,7.851,17.5,17.5,17.5H106v26.672c0,4.143,3.358,7.5,7.5,7.5h118
			c4.142,0,7.5-3.357,7.5-7.5v-26.672h88.5c9.649,0,17.5-7.851,17.5-17.5v-78v-66C345,97.765,337.149,89.914,327.5,89.914z
			 M121,56.914h103c0,8.602,0,72.659,0,83H121C121,129.486,121,65.399,121,56.914z M15,107.414c0-1.379,1.122-2.5,2.5-2.5H106v35
			H90.166c-4.142,0-7.5,3.357-7.5,7.5s3.358,7.5,7.5,7.5c6.91,0,157.744,0,164.667,0c4.142,0,7.5-3.357,7.5-7.5s-3.358-7.5-7.5-7.5
			H239v-35h88.5c1.378,0,2.5,1.121,2.5,2.5v58.5h-28.812c-4.142,0-7.5,3.357-7.5,7.5v22.5H51.312v-22.5c0-4.143-3.358-7.5-7.5-7.5
			H15V107.414z M224,288.086H121v-19.172h103V288.086z M330,251.414c0,1.379-1.122,2.5-2.5,2.5c-11.032,0-283.205,0-310,0
			c-1.378,0-2.5-1.121-2.5-2.5v-70.5h21.312v22.5c0,4.143,3.358,7.5,7.5,7.5h257.376c4.142,0,7.5-3.357,7.5-7.5v-22.5H330V251.414z"
			/>
		<circle style="fill:#22313F;" cx="306.5" cy="128.414" r="11"/>
	</g>
</g>
<g>
</g>
<g>
</g>
<g>
</g>
<g>
</g>
<g>
</g>
<g>
</g>
<g>
</g>
<g>
</g>
<g>
</g>
<g>
</g>
<g>
</g>
<g>
</g>
<g>
</g>
<g>
</g>
<g>
</g>
</svg>
