<?xml version="1.0" encoding="iso-8859-1"?>
<!-- Generator: Adobe Illustrator 19.0.0, SVG Export Plug-In . SVG Version: 6.00 Build 0)  -->
<svg version="1.1" id="Layer_1" xmlns="http://www.w3.org/2000/svg" xmlns:xlink="http://www.w3.org/1999/xlink" x="0px" y="0px"
	 viewBox="0 0 512 512" style="enable-background:new 0 0 512 512;" xml:space="preserve">
<g>
	<path style="fill:#7E8488;" d="M301.011,436.044v22.505v33.758c0,6.189,5.064,11.253,11.253,11.253H30.945
		c-6.189,0-11.253-5.064-11.253-11.253v-73.143h281.319V436.044z"/>
	<path style="fill:#7E8488;" d="M301.011,436.044h191.297v56.264c0,6.189-5.064,11.253-11.253,11.253H323.517h-11.253
		c-6.189,0-11.253-5.064-11.253-11.253v-33.758V436.044z"/>
	<path style="fill:#7E8488;" d="M312.264,154.725h101.275h67.516c6.189,0,11.253,5.064,11.253,11.253v56.264H301.011v-56.264
		C301.011,159.789,306.075,154.725,312.264,154.725z"/>
	<path style="fill:#7E8488;" d="M413.538,19.692v73.143H19.692V19.692c0-6.189,5.064-11.253,11.253-11.253h371.341
		C408.475,8.44,413.538,13.503,413.538,19.692z"/>
</g>
<g>
	<polygon style="fill:#00ABD5;" points="492.308,436.044 301.011,436.044 301.011,419.165 301.011,222.242 492.308,222.242 	"/>
	<path style="fill:#00ABD5;" d="M413.538,92.835v61.89H312.264c-6.189,0-11.253,5.064-11.253,11.253v56.264v196.923H19.692V92.835
		H413.538z"/>
</g>
<g>
	<path style="fill:#009DD3;" d="M19.692,92.835v326.33h56.264L301.011,194.11v-28.132c0-6.189,5.064-11.253,11.253-11.253h28.132
		l61.89-61.89H19.692z"/>
	<polygon style="fill:#009DD3;" points="492.308,222.242 301.011,222.242 301.011,419.165 301.011,436.044 317.89,436.044 
		492.308,261.626 	"/>
</g>
<path d="M481.055,146.286h-59.077V19.692C421.978,8.835,413.143,0,402.286,0H30.945C20.087,0,11.253,8.835,11.253,19.692v472.615
	c0,10.858,8.835,19.692,19.692,19.692h450.11c10.858,0,19.692-8.835,19.692-19.692v-326.33
	C500.747,155.12,491.913,146.286,481.055,146.286z M483.868,165.978v47.824H309.451v-47.824c0-1.525,1.288-2.813,2.813-2.813
	h168.791C482.58,163.165,483.868,164.453,483.868,165.978z M309.451,230.681h174.418v196.923H309.451V230.681z M312.264,146.286
	c-10.858,0-19.692,8.835-19.692,19.692v244.747H28.132V101.275h376.967v45.011H312.264z M30.945,16.879h371.341
	c1.525,0,2.813,1.288,2.813,2.813v64.703H28.132V19.692C28.132,18.168,29.42,16.879,30.945,16.879z M28.132,492.308v-64.703h264.44
	c0,0,0.092,66.595,0.225,67.517H30.945C29.42,495.121,28.132,493.832,28.132,492.308z M481.055,495.121H312.264
	c-1.525,0-2.813-1.288-2.813-2.813v-47.824h174.418v47.824C483.868,493.832,482.58,495.121,481.055,495.121z"/>
<rect x="357.275" y="180.044" width="78.769" height="16.879"/>
<rect x="379.78" y="461.363" width="33.758" height="16.879"/>
<rect x="137.846" y="45.011" width="157.538" height="16.879"/>
<rect x="188.484" y="450.11" width="56.264" height="16.879"/>
<g>
	<polygon style="fill:#FFFFFF;" points="73.143,295.385 56.264,295.385 56.264,129.407 115.341,129.407 115.341,146.286 
		73.143,146.286 	"/>
	<rect x="56.264" y="317.89" style="fill:#FFFFFF;" width="16.879" height="22.505"/>
	<polygon style="fill:#FFFFFF;" points="348.835,329.143 331.956,329.143 331.956,253.187 374.154,253.187 374.154,270.066 
		348.835,270.066 	"/>
	<rect x="331.956" y="346.022" style="fill:#FFFFFF;" width="16.879" height="22.505"/>
</g>
<g>
</g>
<g>
</g>
<g>
</g>
<g>
</g>
<g>
</g>
<g>
</g>
<g>
</g>
<g>
</g>
<g>
</g>
<g>
</g>
<g>
</g>
<g>
</g>
<g>
</g>
<g>
</g>
<g>
</g>
</svg>
